<svg xmlns="http://www.w3.org/2000/svg" width="1050.453" height="1041.445" viewBox="0 0 1050.453 1041.445"><defs><style>.a{fill:#393939;}.b{fill:#5aa349;stroke:#2c5124;stroke-width:20px;}</style></defs><g transform="translate(-518 -26)"><g transform="translate(916.638 91.613)"><path class="a" d="M221.706,852.157V802.6H202.5V521.925H50.139V802.649h-21v79.419H7.362v79.61s57.34,13.59,117.116,14.136S246.465,963.86,246.465,963.86V852.108l-24.758.049Z" transform="translate(0)"/></g><g transform="translate(528 27.856)"><g transform="translate(0 8.144)"><path class="b" d="M515.226,8.144C231.143,8.144,0,239.287,0,523.37c0,211.951,132.864,404.968,330.518,480.255a31.707,31.707,0,0,0,25.5-1.095,32.311,32.311,0,0,0,16.68-19.385l96.6-308.492a32.148,32.148,0,0,0-15.135-37.8c-41.8-23.056-67.752-66.529-67.752-113.479a128.807,128.807,0,0,1,257.613,0c0,46.95-25.955,90.422-67.752,113.543a32.071,32.071,0,0,0-15.135,37.8l96.6,308.492a32.311,32.311,0,0,0,16.68,19.385,32.666,32.666,0,0,0,14.04,3.22,31.989,31.989,0,0,0,11.464-2.125c197.718-75.352,330.518-268.368,330.518-480.32C1030.453,239.287,799.309,8.144,515.226,8.144Z" transform="translate(0 -8.144)"/></g></g><g transform="translate(916.638 91.613)"><path class="a" d="M202.5,522.759V305.312H186.265V263.965H163.249V222.521h-11c-3.255-8.308-11.233-47.6-12.379-71.306-1.146-25.072-.367-21.553-.046-26.587a16.362,16.362,0,0,0,.734-4.985c0-6.745-4.081-12.463-9.628-14.369V11.632L125.653,0l-5.685,11.632v95.059a15.205,15.205,0,0,0-6.923,13,14.545,14.545,0,0,0,.413,3.421H113s1.421-1.906,0,28.053c-1.009,23.752-9.032,63.047-12.288,71.355h-11.1v41.445H65.132v41.347H50.139V522.759Z" transform="translate(0)"/></g></g></svg>